<?xml version="1.0" encoding="utf-8"?>
<!-- Generator: Adobe Illustrator 16.0.0, SVG Export Plug-In . SVG Version: 6.00 Build 0)  -->
<!DOCTYPE svg PUBLIC "-//W3C//DTD SVG 1.1//EN" "http://www.w3.org/Graphics/SVG/1.1/DTD/svg11.dtd">
<svg version="1.1" id="Layer_1" xmlns="http://www.w3.org/2000/svg" xmlns:xlink="http://www.w3.org/1999/xlink" x="0px" y="0px"
	 width="40px" height="40px" viewBox="30 30.167 40 40" enable-background="new 30 30.167 40 40" xml:space="preserve">
<g>
	<path fill="#FFFFFF" d="M65.283,37.864H34.715c-2.605,0-4.707,2.109-4.707,4.707v14.858c0,2.597,2.102,4.708,4.707,4.708h30.568
		c2.597,0,4.709-2.111,4.709-4.708V42.571C69.992,39.975,67.88,37.864,65.283,37.864z M32.902,41.074
		c0.04-0.065,0.096-0.119,0.15-0.167c0.165-0.171,0.353-0.305,0.558-0.416c0.063-0.032,0.125-0.064,0.188-0.086
		c0.07-0.032,0.149-0.063,0.219-0.079c0.221-0.069,0.455-0.109,0.698-0.109h30.57c0.384,0,0.752,0.095,1.068,0.258
		c0.069,0.032,0.14,0.072,0.202,0.119c0.07,0.047,0.141,0.094,0.209,0.157c0.074,0.055,0.143,0.117,0.208,0.181
		c0.059,0.063,0.117,0.125,0.165,0.189l-17.141,6.368l-17.132-6.368C32.872,41.097,32.88,41.088,32.902,41.074z M67.636,57.429
		c0,1.294-1.05,2.354-2.353,2.354H34.715c-1.303,0-2.353-1.061-2.353-2.354V43.443L49.997,50l17.639-6.557V57.429z"/>
</g>
</svg>
