<?xml version="1.0" encoding="utf-8"?>
<!-- Generator: Adobe Illustrator 16.0.0, SVG Export Plug-In . SVG Version: 6.00 Build 0)  -->
<!DOCTYPE svg PUBLIC "-//W3C//DTD SVG 1.1//EN" "http://www.w3.org/Graphics/SVG/1.1/DTD/svg11.dtd">
<svg version="1.1" id="Layer_1" xmlns="http://www.w3.org/2000/svg" xmlns:xlink="http://www.w3.org/1999/xlink" x="0px" y="0px"
	 width="311.906px" height="479.031px" viewBox="0 0 311.906 479.031" enable-background="new 0 0 311.906 479.031"
	 xml:space="preserve">
<g>
	<g id="Layer_4">
		<path display="none" fill="#FFFFFF" d="M280.722,200.976c0,68.89-55.85,124.73-124.72,124.73
			c-68.89,0-124.74-55.841-124.74-124.73c0-68.89,55.85-124.72,124.74-124.72C224.873,76.256,280.722,132.085,280.722,200.976z"/>
		<g>
			<path fill="#3087B9" d="M249.542,155.906c-17.21,0-31.189,13.97-31.189,31.18c0-17.21-13.96-31.18-31.17-31.18
				c17.21,0,31.17-13.97,31.17-31.17C218.353,141.936,232.333,155.906,249.542,155.906z"/>
			<path fill="#FFFFFF" d="M280.724,124.728c0-17.212-13.971-31.182-31.182-31.182c17.211,0,31.182-13.969,31.182-31.182
				c0,17.212,13.97,31.182,31.182,31.182C294.693,93.545,280.724,107.515,280.724,124.728z"/>
			<path display="none" fill="#FFFFFF" d="M218.359,62.364c0-17.212-13.97-31.182-31.182-31.182
				c17.212,0,31.182-13.969,31.182-31.182c0,17.212,13.969,31.182,31.184,31.182C232.328,31.182,218.359,45.151,218.359,62.364z"/>
		</g>
	</g>
	<g id="Layer_6" display="none">
		<g display="inline">
			<path fill="#FFFFFF" d="M71.022,405.367l-17.564,40.846H42.712c-0.221-1.731-0.936-6.158-2.117-13.248
				c-1.182-7.093-2.007-12.012-2.446-14.731c-0.88-6.735-1.456-11.023-1.786-12.865l-9.594,47.028H11.624l17.262-73.885h15.282
				c0.11,1.101,0.386,2.805,0.825,5.113c0.439,2.337,0.906,4.947,1.373,7.807c0.496,2.885,0.99,5.992,1.54,9.346
				c0.55,3.354,1.017,6.597,1.457,9.677c0.439,3.077,0.825,5.937,1.127,8.547c0.33,2.611,0.604,4.674,0.824,6.187
				c0.44-1.403,1.209-3.408,2.364-6.021c1.154-2.611,2.363-5.469,3.655-8.63c1.292-3.134,2.722-6.377,4.233-9.676
				c1.511-3.299,2.941-6.433,4.314-9.347c1.348-2.94,2.557-5.552,3.574-7.889c1.017-2.336,1.814-4.041,2.363-5.113H87.1
				l-3.574,73.885H67.751c0.111-1.182,0.221-2.967,0.33-5.359c0.11-2.391,0.303-5.057,0.578-8.053
				c0.274-2.969,0.494-6.104,0.659-9.347s0.357-6.404,0.577-9.429c0.221-3.021,0.439-5.881,0.66-8.547
				C70.774,408.967,70.912,406.878,71.022,405.367z"/>
			<path fill="#FFFFFF" d="M96.365,465.205c4.893,1.621,9.593,2.447,14.155,2.447c3.244,0,5.36-0.441,6.35-1.293
				c2.063-1.843,3.464-4.946,4.234-9.263l1.95-12.37h-0.33c-5.745,5.745-11.379,8.633-16.931,8.633
				c-5.525,0-9.181-1.65-10.913-4.977c-1.731-3.298-2.171-8.383-1.292-15.228l5.525-38.729h15.282l-5.003,34.99
				c-0.439,4.563-0.494,7.312-0.164,8.301c0.77,1.622,2.281,2.447,4.563,2.447c2.611,0,5.58-1.567,8.961-4.729
				c0.77-0.658,1.346-1.127,1.787-1.456l5.523-39.554h15.146l-8.797,62.313c-1.1,7.587-3.572,13.193-7.476,16.849
				c-3.903,3.629-9.648,5.443-17.262,5.443c-5.306,0-11.38-1.127-18.224-3.408L96.365,465.205z"/>
			<path fill="#FFFFFF" d="M186.66,395.086l-1.484,11.133l-0.027,0.165c-0.88-0.11-2.363-0.496-4.479-1.127
				c-2.117-0.66-4.371-0.962-6.764-0.962c-4.563,0-7.119,1.511-7.641,4.563c-0.221,1.401,0.137,2.693,1.072,3.819
				c0.906,1.128,2.088,2.282,3.49,3.409c1.4,1.128,2.996,2.336,4.728,3.573c1.512,1.072,2.887,2.254,4.151,3.547l0,0
				c0.19,0.191,0.385,0.385,0.576,0.604c3.242,3.464,4.508,7.588,3.737,12.369c-0.438,4.782-2.502,8.852-6.185,12.204
				c-3.903,3.354-9.235,5.059-15.942,5.059c-4.453,0-7.807-0.439-10.088-1.291c-1.951-0.716-3.545-1.32-4.782-1.869l1.512-11.462
				c0.33,0.108,0.907,0.384,1.787,0.823c0.879,0.438,1.896,0.881,3.078,1.292c3.052,0.989,5.58,1.457,7.643,1.457
				c2.062,0,3.711-0.356,4.975-1.045c1.236-0.715,2.007-1.952,2.281-3.738c0.275-1.786-0.027-3.299-0.881-4.563
				c-0.879-1.236-1.979-2.473-3.324-3.655c-1.348-1.183-2.858-2.419-4.479-3.654c-1.623-1.236-3.08-2.694-4.399-4.316
				c-0.44-0.521-0.825-1.044-1.183-1.565c-0.274-0.385-0.494-0.798-0.741-1.21c-1.596-2.913-2.145-6.185-1.678-9.759
				c0.495-3.654,1.896-6.732,4.206-9.263l0,0c0.715-0.796,1.512-1.512,2.393-2.198c3.736-2.887,8.769-4.316,15.063-4.316
				C177.863,393.052,182.345,393.74,186.66,395.086z"/>
			<path fill="#FFFFFF" d="M227.203,394.316l-1.293,11.077h-12.533l-3.902,27.651c-0.439,2.502-0.439,4.344,0,5.524
				c0.439,1.183,1.538,1.788,3.326,1.788c1.785,0,3.324-0.248,4.646-0.742c1.291-0.495,2.171-0.798,2.611-0.907v10.746
				c-0.44,0.111-1.073,0.385-1.952,0.826c-0.88,0.438-1.842,0.879-2.941,1.291c-2.721,1.183-5.744,1.787-9.125,1.787
				c-5.195,0-8.74-1.375-10.582-4.15c-1.842-2.776-2.336-7.449-1.459-14.074l4.399-29.768h-6.185l1.455-11.077h6.187l1.951-13.825
				l15.448-2.446l-2.447,16.271L227.203,394.316L227.203,394.316z"/>
			<path fill="#FFFFFF" d="M244.628,452.37h-15.282l7.89-57.173l15.776-2.146L244.628,452.37z M248.944,367.93
				c2.447,0,4.343,0.879,5.688,2.61c1.347,1.731,1.844,3.933,1.457,6.599c-0.385,2.665-1.483,4.838-3.324,6.514
				c-1.842,1.677-3.986,2.529-6.434,2.529s-4.369-0.854-5.771-2.529c-1.403-1.676-1.952-3.82-1.623-6.433
				c0.55-2.721,1.731-4.946,3.573-6.68C244.354,368.809,246.498,367.93,248.944,367.93z"/>
			<path fill="#FFFFFF" d="M296.605,406.576c-3.572-1.183-6.623-1.786-9.124-1.786c-3.794,0-6.789,1.483-8.962,4.479
				c-2.171,2.995-3.711,7.752-4.646,14.321c-0.935,6.568-0.658,11.188,0.826,13.826c1.457,2.664,3.573,3.984,6.35,3.984
				c2.775,0,5.168-0.412,7.229-1.209c2.062-0.825,3.464-1.32,4.233-1.539l2.115,9.428c-5.965,3.573-11.654,5.359-17.096,5.359
				c-15.613,0-22.072-9.813-19.353-29.467c2.722-20.614,12.313-30.923,28.806-30.923c4.674,0,9.018,0.77,13.029,2.281
				L296.605,406.576z"/>
		</g>
	</g>
</g>
</svg>
