<?xml version="1.0" encoding="utf-8"?>
<!-- Generator: Adobe Illustrator 16.0.0, SVG Export Plug-In . SVG Version: 6.00 Build 0)  -->
<!DOCTYPE svg PUBLIC "-//W3C//DTD SVG 1.1//EN" "http://www.w3.org/Graphics/SVG/1.1/DTD/svg11.dtd">
<svg version="1.1" id="Layer_1" xmlns="http://www.w3.org/2000/svg" xmlns:xlink="http://www.w3.org/1999/xlink" x="0px" y="0px"
	 width="40px" height="40px" viewBox="30 21.416 40 40" enable-background="new 30 21.416 40 40" xml:space="preserve">
<g>
	<path fill="#FFFFFF" d="M65.338,29.879H59.67c-0.637-4.771-4.73-8.463-9.675-8.463c-4.936,0-9.029,3.693-9.668,8.463H34.66
		c-2.614,0-4.724,2.11-4.724,4.724v14.901c0,2.615,2.11,4.725,4.724,4.725h30.678c2.606,0,4.724-2.109,4.724-4.725V34.603
		C70.062,31.988,67.944,29.879,65.338,29.879z M49.995,23.778c3.638,0,6.676,2.637,7.283,6.101H42.722
		C43.327,26.415,46.358,23.778,49.995,23.778z M67.7,49.504c0,1.309-1.055,2.363-2.362,2.363H34.66
		c-1.307,0-2.362-1.055-2.362-2.363V34.603c0-1.307,1.055-2.361,2.362-2.361h30.678c1.308,0,2.362,1.054,2.362,2.361V49.504
		L67.7,49.504z"/>
	<path fill="#FFFFFF" d="M52.412,40.011c0,0,0,2.866,0,4.196c0,1.332-1.079,2.416-2.415,2.416c-1.33,0-2.41-1.084-2.41-2.416
		c0-0.586,0-4.196,0-4.196c0-1.331,1.08-2.415,2.41-2.415C51.332,37.596,52.412,38.68,52.412,40.011z"/>
</g>
</svg>
